<?xml version="1.0" encoding="UTF-8"?>
<!DOCTYPE svg PUBLIC "-//W3C//DTD SVG 1.1//EN" "http://www.w3.org/Graphics/SVG/1.1/DTD/svg11.dtd">
<!-- Creator: CorelDRAW X7 -->
<svg xmlns="http://www.w3.org/2000/svg" xml:space="preserve" width="226mm" height="23mm" version="1.1" style="shape-rendering:geometricPrecision; text-rendering:geometricPrecision; image-rendering:optimizeQuality; fill-rule:evenodd; clip-rule:evenodd"
viewBox="0 0 22600 2300"
 xmlns:xlink="http://www.w3.org/1999/xlink">
 <defs>
  <style type="text/css">
   <![CDATA[
    .fil0 {fill:#FEFEFE;fill-rule:nonzero}
   ]]>
  </style>
 </defs>
 <g id="Camada_x0020_1">
  <metadata id="CorelCorpID_0Corel-Layer"/>
  <g id="_506682384">
   <path class="fil0" d="M1963 2155l0 -2042 -613 0 -1341 2049 661 0 184 -323 587 0 0 323 520 0 2 -7zm-515 -708l-365 0 365 -620 0 620z"/>
   <path class="fil0" d="M12542 2162l-3 -7 0 -2042 -612 0 -1044 1594 -149 -205c0,0 406,-176 406,-705l0 -6c0,0 -68,-675 -676,-675l-270 0 -504 0 0 2046 518 0 0 -558 341 558 37 0 501 0 160 0 183 -323 588 0 2 323 522 0zm-1917 -1318l0 3c0,312 -417,244 -417,244l0 -520 141 -3c294,0 276,276 276,276zm1400 603l-365 0 365 -620 0 620z"/>
   <path class="fil0" d="M7977 2163l2 -2049 -613 0 -822 1257 -4 -1257 -532 0 2 2049 676 0 184 -323 587 0 3 320 517 3zm-512 -715l-366 0 366 -620 0 620z"/>
   <polygon class="fil0" points="12642,2162 13164,2162 13164,1086 13795,2162 14361,2162 14361,127 13840,127 13840,1273 13160,127 12635,127 12635,2162 "/>
   <path class="fil0" d="M5866 116l-523 0 0 1256c0,0 3,328 -282,332 -10,1 -8,0 -8,0 0,0 -254,-8 -254,-340l0 -1248 -520 0 0 1318c0,0 9,729 782,729l-6 0c0,0 770,50 811,-732 41,-781 0,0 0,0l0 -1315z"/>
   <path class="fil0" d="M3081 1012l0 414 511 0c0,0 -47,294 -456,294 0,0 -502,50 -564,-535 0,0 -35,-508 453,-614 0,0 352,-73 552,220l591 0c0,0 -147,-643 -952,-731 0,0 -726,-77 -1061,584 0,0 -258,441 -9,979 0,0 256,599 961,602 0,0 614,65 955,-505 0,0 194,-253 156,-708l-1137 -3 0 3z"/>
   <path class="fil0" d="M16878 171l-8 15 -878 1342c-20,25 -178,207 -457,215 0,0 -488,6 -561,-558 0,0 -27,-517 540,-593 0,0 470,-12 594,420l329 -500c0,0 -323,-484 -902,-464 0,0 -931,-18 -1093,987 0,0 -135,1102 1066,1217 0,0 509,37 853,-336l13 -4 587 0 2 323 523 0 -2 -3 1273 0c874,0 1106,-647 1106,-647l-2366 0 0 -51 2542 0c984,0 1164,-665 1164,-665l-3706 0 0 -48 4114 0c720,0 980,-650 980,-650l-5713 0zm91 729l0 620 -366 0 366 -620z"/>
   <path class="fil0" d="M9102 1521l0 2c0,246 -370,193 -370,193l0 -411 125 -2c261,0 245,218 245,218zm-370 -959l109 -2c229,0 216,182 216,182l0 2c0,205 -325,161 -325,161l0 -343zm869 932c0,-2 0,-4 0,-6 -2,-38 -24,-272 -264,-409 0,0 266,-158 169,-555 0,0 -65,-376 -558,-408 -44,-3 -738,-3 -738,-3l0 3 0 2046 844 0c0,0 577,-34 547,-668z"/>
  </g>
 </g>
</svg>
